<svg width="20" height="20" viewBox="0 0 20 20" fill="none" xmlns="http://www.w3.org/2000/svg">
<g clip-path="url(#clip0)">
<path d="M13.6 13.47C12.9103 14.1928 12.0196 14.6919 11.0431 14.9027C10.0666 15.1135 9.04924 15.0264 8.1228 14.6526C7.19636 14.2788 6.40344 13.6355 5.84669 12.806C5.28994 11.9765 4.99499 10.999 5.00001 10C5.00001 9.07145 5.25858 8.16124 5.74675 7.37136C6.23492 6.58148 6.93341 5.94314 7.76394 5.52788C8.59447 5.11261 9.52423 4.93683 10.449 5.02022C11.3738 5.10361 12.2572 5.44288 13 6.00001V5.00001H15V11.5C15 11.8978 15.158 12.2794 15.4393 12.5607C15.7207 12.842 16.1022 13 16.5 13C16.8978 13 17.2794 12.842 17.5607 12.5607C17.842 12.2794 18 11.8978 18 11.5V10C17.9988 8.2596 17.43 6.56706 16.3799 5.1791C15.3299 3.79113 13.8559 2.78345 12.1814 2.30889C10.5069 1.83432 8.72338 1.91876 7.10123 2.5494C5.47909 3.18003 4.10685 4.32246 3.19262 5.80342C2.2784 7.28438 1.87207 9.02308 2.03525 10.7558C2.19843 12.4886 2.92223 14.1208 4.09687 15.4051C5.27151 16.6893 6.83291 17.5555 8.54426 17.8722C10.2556 18.1889 12.0236 17.9388 13.58 17.16L14.48 18.95C12.5349 19.9247 10.325 20.2385 8.18545 19.8437C6.04591 19.4489 4.0935 18.3671 2.62434 16.7624C1.15518 15.1577 0.249431 13.1177 0.04448 10.9517C-0.160471 8.78572 0.346556 6.61199 1.48866 4.76021C2.63076 2.90844 4.34562 1.47965 6.37313 0.69057C8.40064 -0.098513 10.6302 -0.20484 12.7236 0.387716C14.817 0.980272 16.66 2.23938 17.9732 3.97407C19.2863 5.70875 19.9979 7.82436 20 10H19.82H19.99V11.5C19.9922 12.2502 19.7534 12.9813 19.3086 13.5855C18.8638 14.1896 18.2367 14.6349 17.5197 14.8556C16.8027 15.0763 16.0337 15.0607 15.3262 14.8113C14.6187 14.5618 14.01 14.0916 13.59 13.47H13.6ZM10 13C10.7957 13 11.5587 12.6839 12.1213 12.1213C12.6839 11.5587 13 10.7957 13 10C13 9.20436 12.6839 8.4413 12.1213 7.87869C11.5587 7.31608 10.7957 7.00001 10 7.00001C9.20436 7.00001 8.4413 7.31608 7.87869 7.87869C7.31608 8.4413 7.00001 9.20436 7.00001 10C7.00001 10.7957 7.31608 11.5587 7.87869 12.1213C8.4413 12.6839 9.20436 13 10 13V13Z" fill="#ADADAD"/>
</g>
<defs>
<clipPath id="clip0">
<rect width="20" height="20" fill="white"/>
</clipPath>
</defs>
</svg>
