<svg width="20" height="20" viewBox="0 0 20 20" fill="none" xmlns="http://www.w3.org/2000/svg">
<path d="M20 18.35V19C20 19.2652 19.8946 19.5196 19.7071 19.7071C19.5196 19.8946 19.2652 20 19 20H17C12.4913 20 8.1673 18.2089 4.97918 15.0208C1.79107 11.8327 0 7.50868 0 3L0 1C0 0.734784 0.105357 0.48043 0.292893 0.292893C0.48043 0.105357 0.734784 0 1 0L5 0C5.26522 0 5.51957 0.105357 5.70711 0.292893C5.89464 0.48043 6 0.734784 6 1V5C6 5.56 5.69 6.31 5.3 6.7L3.16 8.84C4.68 12.44 7.56 15.32 11.16 16.84L13.28 14.72C13.68 14.32 14.43 14.01 14.98 14.01H19C19.2635 14.0126 19.5153 14.1192 19.7007 14.3064C19.886 14.4937 19.99 14.7465 19.99 15.01V18.36L20 18.35Z" fill="#ADADAD"/>
</svg>
