<svg width="14" height="19" viewBox="0 0 14 19" fill="none" xmlns="http://www.w3.org/2000/svg">
<g clip-path="url(#clip0)">
<path fill-rule="evenodd" clip-rule="evenodd" d="M6.73161 11.776L6.79871 13.2187C6.79871 14.1943 6.54124 14.9644 6.03099 15.5225H13.9345V19H0.0405707V15.5225H1.37628C1.87405 15.3942 2.13152 14.9504 2.15805 14.1943L2.17053 13.5125L2.10343 11.776H0V8.41146H2.00201L1.92243 5.61434C1.92243 3.85628 2.45453 2.48014 3.5156 1.48592C4.57512 0.496338 6.01226 0 7.8239 0C9.76661 0 11.2802 0.493245 12.3678 1.48128C13.4554 2.47087 14.0016 3.8068 14.0016 5.49992H9.71043C9.71043 4.15007 9.1206 3.47746 7.94405 3.47746C7.50089 3.47746 7.14512 3.65373 6.87985 4.00008C6.6099 4.34798 6.4757 4.88298 6.4757 5.61279L6.59117 8.40991H10.5843V11.7745L6.73161 11.776V11.776Z" fill="#ADADAD"/>
</g>
<defs>
<clipPath id="clip0">
<rect width="14" height="19" fill="white"/>
</clipPath>
</defs>
</svg>
