<svg xmlns="http://www.w3.org/2000/svg" viewBox="0 0 89.72 122.88"><path d="M43.14 76.16l.43 9.33c0 6.31-1.65 11.29-4.92 14.9H89.3v22.49H.26v-22.49h8.56c3.19-.83 4.84-3.7 5.01-8.59l.08-4.41-.43-11.23H0V54.4h12.83l-.51-18.09c0-11.37 3.41-20.27 10.21-26.7C29.32 3.21 38.53 0 50.14 0c12.45 0 22.15 3.19 29.12 9.58 6.97 6.4 10.47 15.04 10.47 25.99h-27.5c0-8.73-3.78-13.08-11.32-13.08-2.84 0-5.12 1.14-6.82 3.38-1.73 2.25-2.59 5.71-2.59 10.43l.74 18.09h25.59v21.76l-24.69.01z" fill-rule="evenodd" clip-rule="evenodd"/></svg>