<svg width="20" height="20" viewBox="0 0 20 20" fill="none" xmlns="http://www.w3.org/2000/svg">
<path d="M2 14V11H1C0.734784 11 0.48043 10.8946 0.292893 10.7071C0.105357 10.5196 0 10.2652 0 10C0 9.73478 0.105357 9.48043 0.292893 9.29289C0.48043 9.10536 0.734784 9 1 9H2L6 2H14L18 9H19C19.2652 9 19.5196 9.10536 19.7071 9.29289C19.8946 9.48043 20 9.73478 20 10C20 10.2652 19.8946 10.5196 19.7071 10.7071C19.5196 10.8946 19.2652 11 19 11H18V17C18 17.2652 17.8946 17.5196 17.7071 17.7071C17.5196 17.8946 17.2652 18 17 18H16C15.7348 18 15.4804 17.8946 15.2929 17.7071C15.1054 17.5196 15 17.2652 15 17V16H5V17C5 17.2652 4.89464 17.5196 4.70711 17.7071C4.51957 17.8946 4.26522 18 4 18H3C2.73478 18 2.48043 17.8946 2.29289 17.7071C2.10536 17.5196 2 17.2652 2 17V14ZM15.86 9L13 4H7L4.14 9H15.86ZM5.5 14C5.69698 14 5.89204 13.9612 6.07403 13.8858C6.25601 13.8104 6.42137 13.6999 6.56066 13.5607C6.69995 13.4214 6.81044 13.256 6.88582 13.074C6.9612 12.892 7 12.697 7 12.5C7 12.303 6.9612 12.108 6.88582 11.926C6.81044 11.744 6.69995 11.5786 6.56066 11.4393C6.42137 11.3001 6.25601 11.1896 6.07403 11.1142C5.89204 11.0388 5.69698 11 5.5 11C5.10218 11 4.72064 11.158 4.43934 11.4393C4.15804 11.7206 4 12.1022 4 12.5C4 12.8978 4.15804 13.2794 4.43934 13.5607C4.72064 13.842 5.10218 14 5.5 14V14ZM14.5 14C14.697 14 14.892 13.9612 15.074 13.8858C15.256 13.8104 15.4214 13.6999 15.5607 13.5607C15.6999 13.4214 15.8104 13.256 15.8858 13.074C15.9612 12.892 16 12.697 16 12.5C16 12.303 15.9612 12.108 15.8858 11.926C15.8104 11.744 15.6999 11.5786 15.5607 11.4393C15.4214 11.3001 15.256 11.1896 15.074 11.1142C14.892 11.0388 14.697 11 14.5 11C14.1022 11 13.7206 11.158 13.4393 11.4393C13.158 11.7206 13 12.1022 13 12.5C13 12.8978 13.158 13.2794 13.4393 13.5607C13.7206 13.842 14.1022 14 14.5 14V14Z" fill="#ADADAD"/>
</svg>
